<svg xmlns="http://www.w3.org/2000/svg" xmlns:xlink="http://www.w3.org/1999/xlink" id="mermaid-svg" width="100%" aria-roledescription="mindmap" role="graphics-document document" viewBox="5 5 822.467 446.755" style="max-width:822.467041015625px"><style>#mermaid-svg{fill:#333}#mermaid-svg,#mermaid-svg svg{font-family:&quot;trebuchet ms&quot;,verdana,arial,sans-serif;font-size:16px}#mermaid-svg .edge{stroke-width:3}#mermaid-svg .section--1 circle,#mermaid-svg .section--1 path,#mermaid-svg .section--1 rect{fill:#8686ff}#mermaid-svg .section--1 text{fill:#fff}#mermaid-svg .section--1 line{stroke:#ffffb9;stroke-width:3}#mermaid-svg .section-0 circle,#mermaid-svg .section-0 path,#mermaid-svg .section-0 rect{fill:#ffff78}#mermaid-svg .section-0 text,#mermaid-svg .section-1 text{fill:#000}#mermaid-svg .section-edge-0{stroke:#ffff78}#mermaid-svg .edge-depth-0{stroke-width:14}#mermaid-svg .section-0 line{stroke:#ababff;stroke-width:3}#mermaid-svg .section-1 circle,#mermaid-svg .section-1 path,#mermaid-svg .section-1 rect{fill:#d7ff86}#mermaid-svg .section-edge-1{stroke:#d7ff86}#mermaid-svg .edge-depth-1{stroke-width:11}#mermaid-svg .section-1 line{stroke:#d0b9ff;stroke-width:3}#mermaid-svg .section-2 circle,#mermaid-svg .section-2 path,#mermaid-svg .section-2 rect{fill:#c286ff}#mermaid-svg .section-2 text,#mermaid-svg .section-root text{fill:#fff}#mermaid-svg .section-edge-2{stroke:#c286ff}#mermaid-svg .section-2 line{stroke:#dcffb9;stroke-width:3}#mermaid-svg .section-root circle,#mermaid-svg .section-root path,#mermaid-svg .section-root rect{fill:#0000ec}#mermaid-svg .edge{fill:none}#mermaid-svg :root{--mermaid-font-family:&quot;trebuchet ms&quot;,verdana,arial,sans-serif}</style><g class="mindmap-edges"><path d="M 236.2555014525489,139.73176916377855 L 156.18877602791054,159.20359434642725 L76.12205060327216,178.67541952907595" class="edge section-edge-0 edge-depth-1"/><path d="M 236.7494587312804,131.01808915239624 L 158.05818061525156,102.13132949951265 L79.3669024992227,73.24456984662905" class="edge section-edge-0 edge-depth-1"/><path d="M 245.14064311916795,122.30827237637413 L 229.86295119251395,85.04357985824694 L214.58525926585995,47.77888734011974" class="edge section-edge-0 edge-depth-1"/><path d="M 262.13404143095477,126.32643186288396 L 301.22379134690345,92.2256656666884 L340.31354126285214,58.124899470492835" class="edge section-edge-0 edge-depth-1"/><path d="M 335.8552265923926,219.06060383997976 L 298.71375767515735,182.8588072323691 L261.5722887579221,146.65701062475836" class="edge section-edge-0 edge-depth-0"/><path d="M 556.7024821661823,199.78346770004944 L 606.8785571948396,227.2052334215304 L657.0546322234968,254.6269991430114" class="edge section-edge-1 edge-depth-1"/><path d="M 532.7369382339125,182.18343333878127 L 502.71038377316074,153.2587161762642 L472.683829312409,124.3339990137471" class="edge section-edge-1 edge-depth-1"/><path d="M 553.881602553172,181.7249314277313 L 582.9083429354307,151.22930773645172 L611.9350833176894,120.73368404517213" class="edge section-edge-1 edge-depth-1"/><path d="M 558.4898910272838,191.36617170516118 L 652.0366806033023,183.70846222865507 L745.5834701793209,176.05075275214895" class="edge section-edge-1 edge-depth-1"/><path d="M 361.3397358738495,226.76513904029653 L 445.06836784287,211.06021401164284 L528.7969998118904,195.35528898298915" class="edge section-edge-1 edge-depth-0"/><path d="M 309.10900737387595,323.0077719456856 L 392.45520833548755,306.93011496932127 L475.80140929709916,290.85245799295694" class="edge section-edge-2 edge-depth-1"/><path d="M 282.35691238584957,316.880510275331 L 244.8285562643465,288.8881305523348 L207.30020014284344,260.8957508293387" class="edge section-edge-2 edge-depth-1"/><path d="M 279.39114805158056,325.28480623217115 L 196.39980234873798,322.1614658560617 L113.40845664589543,319.0381254799522" class="edge section-edge-2 edge-depth-1"/><path d="M 308.65819829484144,330.4476613656602 L 379.25513835906975,353.18644972736035 L449.85207842329805,375.9252380890605" class="edge section-edge-2 edge-depth-1"/><path d="M 298.1883518507062,340.35756169431727 L 307.11028629397447,374.3521490425993 L316.0322207372427,408.34673639088135" class="edge section-edge-2 edge-depth-1"/><path d="M 281.22287019637344,333.05141148308746 L 230.41525013262117,360.8634255957036 L179.6076300688689,388.6754397083197" class="edge section-edge-2 edge-depth-1"/><path d="M 339.44795551374347,242.71732226813288 L 320.4886874662318,277.6896897952387 L301.5294194187201,312.66205732234454" class="edge section-edge-2 edge-depth-0"/></g><g class="mindmap-nodes"><g attr="apa-0)" class="mindmap-node section--1 section-root"><g transform="translate(314.32340079449364, 210.63045474824423) translate(32.2734375, 18.9)"><circle id="node-0" r="32.273" class="node-bkg node-circle"/></g><g><text alignment-baseline="middle" dominant-baseline="middle" dy="1em" text-anchor="middle" transform="translate(314.32340079449364, 210.63045474824423) translate(32.2734375, 5)"><tspan x="0" dy="1em">Konfig</tspan></text></g></g><g attr="apa-1)" class="mindmap-node section-0"><g transform="translate(161.86192705582107, 103.48716047943333)"><rect id="node-1" width="177.938" height="65.4" class="node-bkg node-rect"/></g><g><text alignment-baseline="middle" dominant-baseline="middle" dy="1em" text-anchor="middle" transform="translate(161.86192705582107, 103.48716047943333) translate(88.96875, 10)"><tspan x="0" dy="1em">🛡 (1) Preparing to</tspan><tspan x="0" dy="1.1em">Generate</tspan></text></g></g><g attr="apa-2)" class="mindmap-node section-0"><g transform="translate(15, 163.32002897636062)"><path id="node-2" d="M0 32.8 v-27.799999999999997 q0,-5 5,-5 h83.09375 q5,0 5,5 v32.8 H0 Z" class="node-bkg node-no-border"/><line x1="0" x2="93.094" y1="37.8" y2="37.8" class="node-line-0"/></g><g><text alignment-baseline="middle" dominant-baseline="middle" dy="1em" text-anchor="middle" transform="translate(15, 163.32002897636062) translate(46.546875, 5)"><tspan x="0" dy="1em">konfig lint</tspan></text></g></g><g attr="apa-3)" class="mindmap-node section-0"><g transform="translate(21.676309174682046, 49.17549928253141)"><path id="node-3" d="M0 32.8 v-27.799999999999997 q0,-5 5,-5 h77.21875 q5,0 5,5 v32.8 H0 Z" class="node-bkg node-no-border"/><line x1="0" x2="87.219" y1="37.8" y2="37.8" class="node-line-0"/></g><g><text alignment-baseline="middle" dominant-baseline="middle" dy="1em" text-anchor="middle" transform="translate(21.676309174682046, 49.17549928253141) translate(43.609375, 5)"><tspan x="0" dy="1em">konfig fix</tspan></text></g></g><g attr="apa-4)" class="mindmap-node section-0"><g transform="translate(161.37960032920682, 15)"><path id="node-4" d="M0 32.8 v-27.799999999999997 q0,-5 5,-5 h85.03125 q5,0 5,5 v32.8 H0 Z" class="node-bkg node-no-border"/><line x1="0" x2="95.031" y1="37.8" y2="37.8" class="node-line-0"/></g><g><text alignment-baseline="middle" dominant-baseline="middle" dy="1em" text-anchor="middle" transform="translate(161.37960032920682, 15) translate(47.515625, 5)"><tspan x="0" dy="1em">konfig p2o</tspan></text></g></g><g attr="apa-5)" class="mindmap-node section-0"><g transform="translate(305.14815563798584, 29.364171616882913)"><path id="node-5" d="M0 32.8 v-27.799999999999997 q0,-5 5,-5 h82.9375 q5,0 5,5 v32.8 H0 Z" class="node-bkg node-no-border"/><line x1="0" x2="92.938" y1="37.8" y2="37.8" class="node-line-0"/></g><g><text alignment-baseline="middle" dominant-baseline="middle" dy="1em" text-anchor="middle" transform="translate(305.14815563798584, 29.364171616882913) translate(46.46875, 5)"><tspan x="0" dy="1em">konfig init</tspan></text></g></g><g attr="apa-6)" class="mindmap-node section-1"><g transform="translate(439.9773973912463, 168.68997327504144)"><rect id="node-6" width="207.125" height="47.8" class="node-bkg node-rect"/></g><g><text alignment-baseline="middle" dominant-baseline="middle" dy="1em" text-anchor="middle" transform="translate(439.9773973912463, 168.68997327504144) translate(103.5625, 10)"><tspan x="0" dy="1em">⚙️ (2) Generating SDKs</tspan></text></g></g><g attr="apa-7)" class="mindmap-node section-1"><g transform="translate(603.7562794984328, 242.9204935680194)"><path id="node-7" d="M0 32.8 v-27.799999999999997 q0,-5 5,-5 h122.921875 q5,0 5,5 v32.8 H0 Z" class="node-bkg node-no-border"/><line x1="0" x2="132.922" y1="37.8" y2="37.8" class="node-line-1"/></g><g><text alignment-baseline="middle" dominant-baseline="middle" dy="1em" text-anchor="middle" transform="translate(603.7562794984328, 242.9204935680194) translate(66.4609375, 5)"><tspan x="0" dy="1em">konfig generate</tspan></text></g></g><g attr="apa-8)" class="mindmap-node section-1"><g transform="translate(413.5683701550752, 95.02745907748692)"><path id="node-8" d="M0 32.8 v-27.799999999999997 q0,-5 5,-5 h86.625 q5,0 5,5 v32.8 H0 Z" class="node-bkg node-no-border"/><line x1="0" x2="96.625" y1="37.8" y2="37.8" class="node-line-1"/></g><g><text alignment-baseline="middle" dominant-baseline="middle" dy="1em" text-anchor="middle" transform="translate(413.5683701550752, 95.02745907748692) translate(48.3125, 5)"><tspan x="0" dy="1em">konfig test</tspan></text></g></g><g attr="apa-9)" class="mindmap-node section-1"><g transform="translate(562.3783509796151, 90.96864219786198)"><path id="node-9" d="M0 32.8 v-27.799999999999997 q0,-5 5,-5 h109.796875 q5,0 5,5 v32.8 H0 Z" class="node-bkg node-no-border"/><line x1="0" x2="119.797" y1="37.8" y2="37.8" class="node-line-1"/></g><g><text alignment-baseline="middle" dominant-baseline="middle" dy="1em" text-anchor="middle" transform="translate(562.3783509796151, 90.96864219786198) translate(59.8984375, 5)"><tspan x="0" dy="1em">konfig publish</tspan></text></g></g><g attr="apa-10)" class="mindmap-node section-1"><g transform="translate(703.5998700653583, 155.92695118226868)"><path id="node-10" d="M0 32.8 v-27.799999999999997 q0,-5 5,-5 h103.8671875 q5,0 5,5 v32.8 H0 Z" class="node-bkg node-no-border"/><line x1="0" x2="113.867" y1="37.8" y2="37.8" class="node-line-1"/></g><g><text alignment-baseline="middle" dominant-baseline="middle" dy="1em" text-anchor="middle" transform="translate(703.5998700653583, 155.92695118226868) translate(56.93359375, 5)"><tspan x="0" dy="1em">konfig ignore</tspan></text></g></g><g attr="apa-11)" class="mindmap-node section-2"><g transform="translate(204.01725538796995, 301.94892484223317)"><rect id="node-11" width="180.727" height="47.8" class="node-bkg node-rect"/></g><g><text alignment-baseline="middle" dominant-baseline="middle" dy="1em" text-anchor="middle" transform="translate(204.01725538796995, 301.94892484223317) translate(90.36328125, 10)"><tspan x="0" dy="1em">♻️ (3) Maintenance</tspan></text></g></g><g attr="apa-12)" class="mindmap-node section-2"><g transform="translate(436.19784878300516, 269.1113050964094)"><path id="node-12" d="M0 32.8 v-27.799999999999997 q0,-5 5,-5 h98.6640625 q5,0 5,5 v32.8 H0 Z" class="node-bkg node-no-border"/><line x1="0" x2="108.664" y1="37.8" y2="37.8" class="node-line-2"/></g><g><text alignment-baseline="middle" dominant-baseline="middle" dy="1em" text-anchor="middle" transform="translate(436.19784878300516, 269.1113050964094) translate(54.33203125, 5)"><tspan x="0" dy="1em">konfig bump</tspan></text></g></g><g attr="apa-13)" class="mindmap-node section-2"><g transform="translate(144.47188839072305, 233.0273362624365)"><path id="node-13" d="M0 32.8 v-27.799999999999997 q0,-5 5,-5 h91.609375 q5,0 5,5 v32.8 H0 Z" class="node-bkg node-no-border"/><line x1="0" x2="101.609" y1="37.8" y2="37.8" class="node-line-2"/></g><g><text alignment-baseline="middle" dominant-baseline="middle" dy="1em" text-anchor="middle" transform="translate(144.47188839072305, 233.0273362624365) translate(50.8046875, 5)"><tspan x="0" dy="1em">konfig push</tspan></text></g></g><g attr="apa-14)" class="mindmap-node section-2"><g transform="translate(51.360474309506, 299.57400686989024)"><path id="node-14" d="M0 32.8 v-27.799999999999997 q0,-5 5,-5 h84.1171875 q5,0 5,5 v32.8 H0 Z" class="node-bkg node-no-border"/><line x1="0" x2="94.117" y1="37.8" y2="37.8" class="node-line-2"/></g><g><text alignment-baseline="middle" dominant-baseline="middle" dy="1em" text-anchor="middle" transform="translate(51.360474309506, 299.57400686989024) translate(47.05859375, 5)"><tspan x="0" dy="1em">konfig diff</tspan></text></g></g><g attr="apa-15)" class="mindmap-node section-2"><g transform="translate(423.46567758016954, 361.6239746124876)"><path id="node-15" d="M0 32.8 v-27.799999999999997 q0,-5 5,-5 h71.328125 q5,0 5,5 v32.8 H0 Z" class="node-bkg node-no-border"/><line x1="0" x2="81.328" y1="37.8" y2="37.8" class="node-line-2"/></g><g><text alignment-baseline="middle" dominant-baseline="middle" dy="1em" text-anchor="middle" transform="translate(423.46567758016954, 361.6239746124876) translate(40.6640625, 5)"><tspan x="0" dy="1em">REST API</tspan></text></g></g><g attr="apa-16)" class="mindmap-node section-2"><g transform="translate(256.910348449979, 403.9553732429655)"><path id="node-16" d="M0 32.8 v-27.799999999999997 q0,-5 5,-5 h115.859375 q5,0 5,5 v32.8 H0 Z" class="node-bkg node-no-border"/><line x1="0" x2="125.859" y1="37.8" y2="37.8" class="node-line-2"/></g><g><text alignment-baseline="middle" dominant-baseline="middle" dy="1em" text-anchor="middle" transform="translate(256.910348449979, 403.9553732429655) translate(62.9296875, 5)"><tspan x="0" dy="1em">GitHub Actions</tspan></text></g></g><g attr="apa-17)" class="mindmap-node section-2"><g transform="translate(115.87965112727238, 376.977926349174)"><path id="node-17" d="M0 32.8 v-27.799999999999997 q0,-5 5,-5 h91.140625 q5,0 5,5 v32.8 H0 Z" class="node-bkg node-no-border"/><line x1="0" x2="101.141" y1="37.8" y2="37.8" class="node-line-2"/></g><g><text alignment-baseline="middle" dominant-baseline="middle" dy="1em" text-anchor="middle" transform="translate(115.87965112727238, 376.977926349174) translate(50.5703125, 5)"><tspan x="0" dy="1em">GitHub App</tspan></text></g></g></g><style>@import url(https://cdnjs.cloudflare.com/ajax/libs/font-awesome/5.15.2/css/all.min.css);</style></svg>