<svg xmlns="http://www.w3.org/2000/svg" xmlns:xlink="http://www.w3.org/1999/xlink" id="mermaid-svg" width="100%" aria-roledescription="mindmap" role="graphics-document document" viewBox="5 5 941.133 420.203" style="max-width:941.1334838867188px"><style>#mermaid-svg{fill:#333}#mermaid-svg,#mermaid-svg svg{font-family:&quot;trebuchet ms&quot;,verdana,arial,sans-serif;font-size:16px}#mermaid-svg .edge{stroke-width:3}#mermaid-svg .section--1 path,#mermaid-svg .section--1 rect{fill:#8686ff}#mermaid-svg .section--1 text{fill:#fff}#mermaid-svg .section--1 line{stroke:#ffffb9;stroke-width:3}#mermaid-svg .section-0 path,#mermaid-svg .section-0 rect{fill:#ffff78}#mermaid-svg .section-0 text,#mermaid-svg .section-1 text{fill:#000}#mermaid-svg .section-edge-0{stroke:#ffff78}#mermaid-svg .edge-depth-0{stroke-width:14}#mermaid-svg .section-0 line{stroke:#ababff;stroke-width:3}#mermaid-svg .section-1 path,#mermaid-svg .section-1 rect{fill:#d7ff86}#mermaid-svg .section-edge-1{stroke:#d7ff86}#mermaid-svg .edge-depth-1{stroke-width:11}#mermaid-svg .section-1 line{stroke:#d0b9ff;stroke-width:3}#mermaid-svg .section-2 path,#mermaid-svg .section-2 rect{fill:#c286ff}#mermaid-svg .section-2 text{fill:#fff}#mermaid-svg .section-edge-2{stroke:#c286ff}#mermaid-svg .section-2 line{stroke:#dcffb9;stroke-width:3}#mermaid-svg .section-3 path,#mermaid-svg .section-3 rect{fill:#ff86ff}#mermaid-svg .section-3 text{fill:#000}#mermaid-svg .section-edge-3{stroke:#ff86ff}#mermaid-svg .section-3 line{stroke:#b9ffb9;stroke-width:3}#mermaid-svg .section-root path,#mermaid-svg .section-root rect{fill:#0000ec}#mermaid-svg .section-root text{fill:#fff}#mermaid-svg .edge{fill:none}#mermaid-svg :root{--mermaid-font-family:&quot;trebuchet ms&quot;,verdana,arial,sans-serif}</style><g class="mindmap-edges"><path d="M 627.4451149719586,129.88640053650482 L 722.0273698845356,126.91806402797786 L816.6096247971126,123.94972751945089" class="edge section-edge-0 edge-depth-1"/><path d="M 626.1003811983928,136.58068808940124 L 677.2061630386977,159.88615669404132 L728.3119448790026,183.1916252986814" class="edge section-edge-0 edge-depth-1"/><path d="M 602.421018900689,119.20481816139389 L 573.0281709216656,86.52846144163917 L543.6353229426422,53.85210472188443" class="edge section-edge-0 edge-depth-1"/><path d="M 624.3783869315955,121.25894926041937 L 665.7870070523659,89.66931089775281 L707.1956271731362,58.079672535086246" class="edge section-edge-0 edge-depth-1"/><path d="M 527.4467895894846,204.17442257139254 L 564.2867875972535,172.18319972891712 L601.1267856050223,140.1919768864417" class="edge section-edge-0 edge-depth-0"/><path d="M 602.2077774777748,316.4666583406081 L 602.1721194386803,348.88495472299167 L602.1364613995858,381.30325110537524" class="edge section-edge-1 edge-depth-1"/><path d="M 616.7038079216977,305.3837032671825 L 697.8746078861569,327.342213141324 L779.0454078506161,349.3007230154655" class="edge section-edge-1 edge-depth-1"/><path d="M 588.1500501175668,306.65474525463844 L 532.2825703357768,327.24876057865424 L476.4150905539867,347.84277590267004" class="edge section-edge-1 edge-depth-1"/><path d="M 616.9775835803496,298.7574368490578 L 691.0447151071514,285.15608390720683 L765.1118466339533,271.5547309653559" class="edge section-edge-1 edge-depth-1"/><path d="M 526.6446150591937,224.69849737255203 L 559.172677587625,257.73807161307707 L591.7007401160563,290.77764585360217" class="edge section-edge-1 edge-depth-0"/><path d="M 333.3492238068882,289.4798213643596 L 335.9167592879209,320.00490774994546 L338.48429476895365,350.5299941355313" class="edge section-edge-2 edge-depth-1"/><path d="M 318.74433013715407,281.37659867676047 L 270.85643375801556,305.93107727566087 L222.96853737887707,330.48555587456127" class="edge section-edge-2 edge-depth-1"/><path d="M 501.87189856698535,218.69571804864077 L 424.1065287220291,244.27103943779025 L346.34115887707287,269.84636082693976" class="edge section-edge-2 edge-depth-0"/><path d="M 296.89746796783515,168.18846357060602 L 229.1135616127376,190.32168495119083 L161.3296552576401,212.4549063317756" class="edge section-edge-3 edge-depth-1"/><path d="M 296.3898503398507,160.89733935836495 L 209.5782841891065,145.40561842358008 L122.76671803836237,129.91389748879521" class="edge section-edge-3 edge-depth-1"/><path d="M 308.5378302476965,148.762855560735 L 301.4949043647481,109.04087439651076 L294.4519784817997,69.31889323228651" class="edge section-edge-3 edge-depth-1"/><path d="M 501.5562543595346,210.4225700816663 L 413.6388235256466,188.77098475308216 L325.72139269175864,167.11939942449803" class="edge section-edge-3 edge-depth-0"/></g><g class="mindmap-nodes"><g attr="apa-0)" class="mindmap-node section--1 section-root"><g transform="translate(423.2148286730802, 190.10947581161645)"><rect id="node-0" width="185.813" height="47.8" class="node-bkg node-rounded-rect" rx="20" ry="20"/></g><g><text alignment-baseline="middle" dominant-baseline="middle" dy="1em" text-anchor="middle" transform="translate(423.2148286730802, 190.10947581161645) translate(92.90625, 10)"><tspan x="0" dy="1em">Why Generate SDKs?</tspan></text></g></g><g attr="apa-1)" class="mindmap-node section-0"><g transform="translate(558.1009340214267, 111.45692364621777)"><path id="node-1" d="M0 32.8 v-27.799999999999997 q0,-5 5,-5 h98.703125 q5,0 5,5 v32.8 H0 Z" class="node-bkg node-no-border"/><line x1="0" x2="108.703" y1="37.8" y2="37.8" class="node-line-0"/></g><g><text alignment-baseline="middle" dominant-baseline="middle" dy="1em" text-anchor="middle" transform="translate(558.1009340214267, 111.45692364621777) translate(54.3515625, 5)"><tspan x="0" dy="1em">Key Benefits</tspan></text></g></g><g attr="apa-2)" class="mindmap-node section-0"><g transform="translate(727.0709932476444, 104.57920440973794)"><path id="node-2" d="M0 32.8 v-27.799999999999997 q0,-5 5,-5 h199.0625 q5,0 5,5 v32.8 H0 Z" class="node-bkg node-no-border"/><line x1="0" x2="209.063" y1="37.8" y2="37.8" class="node-line-0"/></g><g><text alignment-baseline="middle" dominant-baseline="middle" dy="1em" text-anchor="middle" transform="translate(727.0709932476444, 104.57920440973794) translate(104.53125, 5)"><tspan x="0" dy="1em">Simplified API interactions</tspan></text></g></g><g attr="apa-3)" class="mindmap-node section-0"><g transform="translate(675.0535795559687, 170.51538974186485)"><path id="node-3" d="M0 32.8 v-27.799999999999997 q0,-5 5,-5 h123.8125 q5,0 5,5 v32.8 H0 Z" class="node-bkg node-no-border"/><line x1="0" x2="133.813" y1="37.8" y2="37.8" class="node-line-0"/></g><g><text alignment-baseline="middle" dominant-baseline="middle" dy="1em" text-anchor="middle" transform="translate(675.0535795559687, 170.51538974186485) translate(66.90625, 5)"><tspan x="0" dy="1em">Consistent code</tspan></text></g></g><g attr="apa-4)" class="mindmap-node section-0"><g transform="translate(451.6546265719045, 15)"><path id="node-4" d="M0 50.39999847412109 v-45.39999847412109 q0,-5 5,-5 h153.8984375 q5,0 5,5 v50.39999847412109 H0 Z" class="node-bkg node-no-border"/><line x1="0" x2="163.898" y1="55.4" y2="55.4" class="node-line-0"/></g><g><text alignment-baseline="middle" dominant-baseline="middle" dy="1em" text-anchor="middle" transform="translate(451.6546265719045, 15) translate(81.94921875, 5)"><tspan x="0" dy="1em">Improved developer</tspan><tspan x="0" dy="1.1em">experience</tspan></text></g></g><g attr="apa-5)" class="mindmap-node section-0"><g transform="translate(656.855892583305, 21.281698912227284)"><path id="node-5" d="M0 50.39999847412109 v-45.39999847412109 q0,-5 5,-5 h114.53125 q5,0 5,5 v50.39999847412109 H0 Z" class="node-bkg node-no-border"/><line x1="0" x2="124.531" y1="55.4" y2="55.4" class="node-line-0"/></g><g><text alignment-baseline="middle" dominant-baseline="middle" dy="1em" text-anchor="middle" transform="translate(656.855892583305, 21.281698912227284) translate(62.265625, 5)"><tspan x="0" dy="1em">Cross platform</tspan><tspan x="0" dy="1.1em">compatibility</tspan></text></g></g><g attr="apa-6)" class="mindmap-node section-1"><g transform="translate(540.1305265021698, 282.56666741453773)"><path id="node-6" d="M0 32.8 v-27.799999999999997 q0,-5 5,-5 h114.1875 q5,0 5,5 v32.8 H0 Z" class="node-bkg node-no-border"/><line x1="0" x2="124.188" y1="37.8" y2="37.8" class="node-line-1"/></g><g><text alignment-baseline="middle" dominant-baseline="middle" dy="1em" text-anchor="middle" transform="translate(540.1305265021698, 282.56666741453773) translate(62.09375, 5)"><tspan x="0" dy="1em">Other Benefits</tspan></text></g></g><g attr="apa-7)" class="mindmap-node section-1"><g transform="translate(517.1902748751908, 377.40324203144564)"><path id="node-7" d="M0 32.8 v-27.799999999999997 q0,-5 5,-5 h159.859375 q5,0 5,5 v32.8 H0 Z" class="node-bkg node-no-border"/><line x1="0" x2="169.859" y1="37.8" y2="37.8" class="node-line-1"/></g><g><text alignment-baseline="middle" dominant-baseline="middle" dy="1em" text-anchor="middle" transform="translate(517.1902748751908, 377.40324203144564) translate(84.9296875, 5)"><tspan x="0" dy="1em">Clear error messages</tspan></text></g></g><g attr="apa-8)" class="mindmap-node section-1"><g transform="translate(720.665564270144, 334.31775886811033)"><path id="node-8" d="M0 32.8 v-27.799999999999997 q0,-5 5,-5 h135.71875 q5,0 5,5 v32.8 H0 Z" class="node-bkg node-no-border"/><line x1="0" x2="145.719" y1="37.8" y2="37.8" class="node-line-1"/></g><g><text alignment-baseline="middle" dominant-baseline="middle" dy="1em" text-anchor="middle" transform="translate(720.665564270144, 334.31775886811033) translate(72.859375, 5)"><tspan x="0" dy="1em">Automatic retries</tspan></text></g></g><g attr="apa-9)" class="mindmap-node section-1"><g transform="translate(424.34867666938374, 334.1308537427708)"><path id="node-9" d="M0 32.8 v-27.799999999999997 q0,-5 5,-5 h65.984375 q5,0 5,5 v32.8 H0 Z" class="node-bkg node-no-border"/><line x1="0" x2="75.984" y1="37.8" y2="37.8" class="node-line-1"/></g><g><text alignment-baseline="middle" dominant-baseline="middle" dy="1em" text-anchor="middle" transform="translate(424.34867666938374, 334.1308537427708) translate(37.9921875, 5)"><tspan x="0" dy="1em">Caching</tspan></text></g></g><g attr="apa-10)" class="mindmap-node section-1"><g transform="translate(717.8104662121331, 249.94550039987595)"><path id="node-10" d="M0 32.8 v-27.799999999999997 q0,-5 5,-5 h114.109375 q5,0 5,5 v32.8 H0 Z" class="node-bkg node-no-border"/><line x1="0" x2="124.109" y1="37.8" y2="37.8" class="node-line-1"/></g><g><text alignment-baseline="middle" dominant-baseline="middle" dy="1em" text-anchor="middle" transform="translate(717.8104662121331, 249.94550039987595) translate(62.0546875, 5)"><tspan x="0" dy="1em">Error analytics</tspan></text></g></g><g attr="apa-11)" class="mindmap-node section-2"><g transform="translate(268.193541270978, 255.63260306396407)"><path id="node-11" d="M0 32.8 v-27.799999999999997 q0,-5 5,-5 h117.796875 q5,0 5,5 v32.8 H0 Z" class="node-bkg node-no-border"/><line x1="0" x2="127.797" y1="37.8" y2="37.8" class="node-line-2"/></g><g><text alignment-baseline="middle" dominant-baseline="middle" dy="1em" text-anchor="middle" transform="translate(268.193541270978, 255.63260306396407) translate(63.8984375, 5)"><tspan x="0" dy="1em">Why Generate?</tspan></text></g></g><g attr="apa-12)" class="mindmap-node section-2"><g transform="translate(308.2493523048638, 346.57721243592687)"><path id="node-12" d="M0 32.8 v-27.799999999999997 q0,-5 5,-5 h52.984375 q5,0 5,5 v32.8 H0 Z" class="node-bkg node-no-border"/><line x1="0" x2="62.984" y1="37.8" y2="37.8" class="node-line-2"/></g><g><text alignment-baseline="middle" dominant-baseline="middle" dy="1em" text-anchor="middle" transform="translate(308.2493523048638, 346.57721243592687) translate(31.4921875, 5)"><tspan x="0" dy="1em">Speed</tspan></text></g></g><g attr="apa-13)" class="mindmap-node section-2"><g transform="translate(167.3357324950531, 318.4295514873577)"><path id="node-13" d="M0 32.8 v-27.799999999999997 q0,-5 5,-5 h74.5703125 q5,0 5,5 v32.8 H0 Z" class="node-bkg node-no-border"/><line x1="0" x2="84.57" y1="37.8" y2="37.8" class="node-line-2"/></g><g><text alignment-baseline="middle" dominant-baseline="middle" dy="1em" text-anchor="middle" transform="translate(167.3357324950531, 318.4295514873577) translate(42.28515625, 5)"><tspan x="0" dy="1em">Accuracy</tspan></text></g></g><g attr="apa-14)" class="mindmap-node section-3"><g transform="translate(258.340162128213, 144.63249369454786)"><path id="node-14" d="M0 32.8 v-27.799999999999997 q0,-5 5,-5 h95.6328125 q5,0 5,5 v32.8 H0 Z" class="node-bkg node-no-border"/><line x1="0" x2="105.633" y1="37.8" y2="37.8" class="node-line-3"/></g><g><text alignment-baseline="middle" dominant-baseline="middle" dy="1em" text-anchor="middle" transform="translate(258.340162128213, 144.63249369454786) translate(52.81640625, 5)"><tspan x="0" dy="1em">Why Konfig?</tspan></text></g></g><g attr="apa-15)" class="mindmap-node section-3"><g transform="translate(40.9689923472622, 198.21087620783373)"><path id="node-15" d="M0 32.8 v-27.799999999999997 q0,-5 5,-5 h202.203125 q5,0 5,5 v32.8 H0 Z" class="node-bkg node-no-border"/><line x1="0" x2="212.203" y1="37.8" y2="37.8" class="node-line-3"/></g><g><text alignment-baseline="middle" dominant-baseline="middle" dy="1em" text-anchor="middle" transform="translate(40.9689923472622, 198.21087620783373) translate(106.1015625, 5)"><tspan x="0" dy="1em">Experts at generating SDKs</tspan></text></g></g><g attr="apa-16)" class="mindmap-node section-3"><g transform="translate(15, 108.37874315261229)"><path id="node-16" d="M0 32.8 v-27.799999999999997 q0,-5 5,-5 h176 q5,0 5,5 v32.8 H0 Z" class="node-bkg node-no-border"/><line x1="0" x2="186" y1="37.8" y2="37.8" class="node-line-3"/></g><g><text alignment-baseline="middle" dominant-baseline="middle" dy="1em" text-anchor="middle" transform="translate(15, 108.37874315261229) translate(93, 5)"><tspan x="0" dy="1em">Deliver all key benefits</tspan></text></g></g><g attr="apa-17)" class="mindmap-node section-3"><g transform="translate(182.98949035128317, 18.04925662435255)"><path id="node-17" d="M0 67.99999694824218 v-62.999996948242185 q0,-5 5,-5 h207.6875 q5,0 5,5 v67.99999694824218 H0 Z" class="node-bkg node-no-border"/><line x1="0" x2="217.688" y1="73" y2="73" class="node-line-3"/></g><g><text alignment-baseline="middle" dominant-baseline="middle" dy="1em" text-anchor="middle" transform="translate(182.98949035128317, 18.04925662435255) translate(108.84375, 5)"><tspan x="0" dy="1em">End to end set of tools to</tspan><tspan x="0" dy="1.1em">generate and customize</tspan><tspan x="0" dy="1.1em">SDKs to exact requirements</tspan></text></g></g></g><style>@import url(https://cdnjs.cloudflare.com/ajax/libs/font-awesome/5.15.2/css/all.min.css);</style></svg>